<?xml version="1.0" encoding="UTF-8" standalone="no"?>
<svg
   xmlns:dc="http://purl.org/dc/elements/1.1/"
   xmlns:cc="http://creativecommons.org/ns#"
   xmlns:rdf="http://www.w3.org/1999/02/22-rdf-syntax-ns#"
   xmlns:svg="http://www.w3.org/2000/svg"
   xmlns="http://www.w3.org/2000/svg"
   xmlns:sodipodi="http://sodipodi.sourceforge.net/DTD/sodipodi-0.dtd"
   xmlns:inkscape="http://www.inkscape.org/namespaces/inkscape"
   width="811.11462"
   height="809.77155"
   viewBox="0 0 214.60741 214.25206"
   version="1.1"
   id="svg8"
   sodipodi:docname="logo_curve.svg"
   inkscape:version="1.0.2 (e86c8708, 2021-01-15)"
   inkscape:export-filename="/Users/gareth/Desktop/RARA/logo/logo_acronym.png"
   inkscape:export-xdpi="25.4"
   inkscape:export-ydpi="25.4">
  <defs
     id="defs2">
    <inkscape:path-effect
       effect="fillet_chamfer"
       id="path-effect967"
       is_visible="true"
       lpeversion="1"
       satellites_param="F,0,0,1,0,0,0,1 @ F,0,0,1,0,0,0,1 @ F,0,0,1,0,0,0,1 @ F,0,0,1,0,26.63696,0,1"
       unit="px"
       method="auto"
       mode="F"
       radius="29"
       chamfer_steps="1"
       flexible="false"
       use_knot_distance="true"
       apply_no_radius="true"
       apply_with_radius="true"
       only_selected="false"
       hide_knots="false" />
    <inkscape:path-effect
       effect="fillet_chamfer"
       id="path-effect944"
       is_visible="true"
       lpeversion="1"
       satellites_param="F,0,0,1,0,26.63696,0,1 @ F,0,0,1,0,0,0,1 @ F,0,0,1,0,0,0,1 @ F,0,0,1,0,26.63696,0,1"
       unit="px"
       method="auto"
       mode="F"
       radius="29"
       chamfer_steps="1"
       flexible="false"
       use_knot_distance="true"
       apply_no_radius="true"
       apply_with_radius="true"
       only_selected="false"
       hide_knots="false" />
    <inkscape:path-effect
       effect="fillet_chamfer"
       id="path-effect854"
       is_visible="true"
       lpeversion="1"
       satellites_param="F,0,0,1,0,0,0,1 @ F,0,0,1,0,0,0,1 @ F,0,0,1,0,0,0,1 @ F,0,0,1,0,0,0,1 @ F,0,0,1,0,0,0,1 @ F,0,0,1,0,0,0,1 @ F,0,0,1,0,0,0,1"
       unit="px"
       method="auto"
       mode="IC"
       radius="27"
       chamfer_steps="1"
       flexible="false"
       use_knot_distance="true"
       apply_no_radius="true"
       apply_with_radius="true"
       only_selected="true"
       hide_knots="false" />
  </defs>
  <sodipodi:namedview
     id="base"
     pagecolor="#ffffff"
     bordercolor="#666666"
     borderopacity="1.0"
     inkscape:pageopacity="0"
     inkscape:pageshadow="2"
     inkscape:zoom="0.76508705"
     inkscape:cx="315.0078"
     inkscape:cy="401.85528"
     inkscape:document-units="mm"
     inkscape:current-layer="layer1"
     inkscape:document-rotation="0"
     showgrid="false"
     inkscape:window-width="1440"
     inkscape:window-height="872"
     inkscape:window-x="0"
     inkscape:window-y="28"
     inkscape:window-maximized="0"
     inkscape:snap-global="true"
     inkscape:pagecheckerboard="true"
     units="px"
     fit-margin-top="0"
     fit-margin-left="0"
     fit-margin-right="0"
     fit-margin-bottom="0">
    <inkscape:grid
       type="xygrid"
       id="grid938"
       originx="1.470378"
       originy="1.292692" />
  </sodipodi:namedview>
  <metadata
     id="metadata5">
    <rdf:RDF>
      <cc:Work
         rdf:about="">
        <dc:format>image/svg+xml</dc:format>
        <dc:type
           rdf:resource="http://purl.org/dc/dcmitype/StillImage" />
        <dc:title />
      </cc:Work>
    </rdf:RDF>
  </metadata>
  <g
     inkscape:label="Layer 1"
     inkscape:groupmode="layer"
     id="layer1"
     transform="translate(1.470378,1.292692)"
     style="display:inline">
    <path
       id="path856-75"
       style="display:inline;fill:#ffffff;fill-opacity:1;stroke:none;stroke-width:0.350803;stroke-linecap:butt;stroke-linejoin:miter;stroke-miterlimit:4;stroke-dasharray:none;stroke-opacity:1"
       inkscape:label="border"
       transform="translate(17.041341,12.326449)"
       d="m 189.33398,-13.619141 a 6.5842417,6.5842417 0 0 0 -5.94336,3.7539066 C 179.66195,-2.0331071 173.92863,7.628498 167.85938,19.074219 163.84214,26.650111 157.17273,35.324218 145.46289,45.533203 119.94566,65.461948 86.621798,76.989808 46.154297,61.472656 40.659316,59.365621 34.587427,58.83826 26.990234,59.943359 a 6.5842417,6.5842417 0 0 0 -0.8125,0.171875 C 1.9788521,66.830747 -12.960302,88.580627 -16.048828,93.398438 a 6.5842417,6.5842417 0 0 0 -2.462891,5.132812 v 95.46094 a 6.5842417,6.5842417 0 0 0 6.583985,6.58398 h 37.183593 l 5.257813,0.0566 a 6.5842417,6.5842417 0 0 0 0.07227,0 l 119.025392,-0.0293 2.60742,0.0293 a 6.5842417,6.5842417 0 0 0 0.0723,0 c 14.223,0 25.11047,-3.20064 32.66406,-9.28906 7.55359,-6.08842 11.14051,-15.0273 11.14062,-23.98828 V -7.0351562 a 6.5842417,6.5842417 0 0 0 -6.58398,-6.5839848 z" />
    <path
       id="path856"
       style="fill:#69bb56;fill-opacity:1;stroke:none;stroke-width:0.350803;stroke-linecap:butt;stroke-linejoin:miter;stroke-miterlimit:4;stroke-dasharray:none;stroke-opacity:1"
       d="M 42.333333,79.31402 C 21.41861,85.322703 5.2916666,111.125 5.2916666,111.125 l -0.1788004,-0.2682 v 95.46084 H 42.333333 Z"
       inkscape:label="pane-left" />
    <path
       id="path856-7"
       style="fill:#69bb56;fill-opacity:1;stroke:none;stroke-width:0.350803;stroke-linecap:butt;stroke-linejoin:miter;stroke-miterlimit:4;stroke-dasharray:none;stroke-opacity:1"
       d="m 206.375,5.2916666 c -3.94206,8.2803664 -9.67737,17.9150034 -15.65744,29.1925314 -4.476,8.44105 -11.76045,17.799402 -21.38423,26.280052 v 145.55339 0.0574 c 26.45834,0 37.22028,-11.98286 37.22047,-26.69398 V 5.2916666 Z"
       sodipodi:nodetypes="cscccccc"
       inkscape:label="pane-right" />
    <path
       id="rect1587"
       style="opacity:0.97;fill:#4170ad;fill-opacity:1;stroke:none;stroke-width:0.264583;stroke-linecap:round;stroke-linejoin:round;stroke-miterlimit:4;stroke-dasharray:none;paint-order:stroke fill markers"
       d="M 164.04166,65.144861 C 139.87342,83.943964 103.56922,96.33042 60.838664,79.945507 56.341853,78.221217 51.908064,77.776445 47.624999,78.254653 V 206.375 H 164.04166 Z"
       inkscape:label="pane-center" />
    <g
       aria-label="Riverside
Area
Residents"
       id="text1493"
       style="font-style:normal;font-variant:normal;font-weight:normal;font-stretch:normal;font-size:26.4583px;line-height:1.25;font-family:'Marker Felt';-inkscape-font-specification:'Marker Felt, Normal';font-variant-ligatures:normal;font-variant-caps:normal;font-variant-numeric:normal;font-variant-east-asian:normal;word-spacing:0px;fill:#ffffff;stroke-width:0.264583"
       inkscape:label="text">
      <path
         d="m 70.189592,122.07883 q 0.02646,0.15875 0.02646,0.29104 0,0.79375 -0.92604,1.34937 -0.926041,0.52917 -1.931456,0.52917 -0.608541,0 -0.978957,-0.23813 -0.264583,-0.15875 -0.47625,-0.60854 -0.185208,-0.47625 -0.423332,-0.635 l -5.847285,-3.91583 0.238125,2.43417 q 0.02646,0.1852 0.396875,0.76729 0.396874,0.58208 0.396874,0.97895 0,0.58209 -0.740832,1.08479 -0.449791,0.3175 -1.137707,0.3175 -0.978957,0 -1.825623,-0.52916 -0.92604,-0.52917 -1.111248,-1.34938 -0.02646,-0.15874 -0.02646,-0.26458 0,-0.37041 0.343958,-0.635 0.370416,-0.29104 0.370416,-0.52916 L 55.690444,106.0451 q -0.02646,-0.34396 -0.291042,-0.89959 -0.264583,-0.58208 -0.264583,-0.84666 0,-0.68792 0.899583,-1.11125 0.740832,-0.37042 1.508123,-0.37042 0.502707,0 0.873124,0.15875 0.370416,0.13229 0.502707,0.44979 0.132292,0.29105 0.3175,0.29105 0.02646,0.0264 1.613956,-0.58209 1.852081,-0.68791 3.254371,-0.68791 2.037289,0 3.280829,1.42875 0.343958,0.39687 0.343958,1.11124 0,1.93146 -2.222497,5.45041 -2.116664,3.30729 -4.36562,5.29166 l 6.826242,4.7625 q 0.02646,0.0265 1.322915,0.635 0.740832,0.34395 0.899582,0.9525 z m -7.090824,-16.43061 q -0.582083,0 -1.852081,1.11125 -0.264583,0.21167 -1.957914,1.82562 l -0.05292,4.73604 q 1.640414,-1.79917 2.963329,-3.9952 1.322915,-2.2225 1.322915,-3.175 0,-0.50271 -0.423332,-0.50271 z"
         style="font-style:normal;font-variant:normal;font-weight:normal;font-stretch:normal;font-size:26.4583px;font-family:'Marker Felt';-inkscape-font-specification:'Marker Felt, Normal';font-variant-ligatures:normal;font-variant-caps:normal;font-variant-numeric:normal;font-variant-east-asian:normal;fill:#ffffff;stroke-width:0.264583"
         id="path20" />
      <path
         d="m 75.630903,103.98135 q 0.07937,0.0794 0.07937,0.26458 0,0.23813 -0.15875,0.82021 -0.185208,0.71437 -0.238125,0.97896 -0.05292,0.26458 0.05292,1.16416 0,0.55563 -0.343958,0.74083 -0.3175,0.15875 -0.820207,0.15875 -0.714374,0 -1.455207,-0.29104 -0.899582,-0.37041 -0.899582,-0.97896 0,-0.1852 0.15875,-0.5027 0.15875,-0.34396 0.185208,-0.55563 0.05292,-0.21166 0,-1.05833 -0.05292,-0.66146 0.264583,-0.89958 0.423333,-0.3175 1.508123,-0.3175 1.190623,0 1.666873,0.47625 z m 0.343958,6.45582 q 0,0.37042 -0.423333,1.16417 -0.396875,0.76729 -0.396875,1.27 v 7.77874 q 0,0.52916 0.291042,1.50812 0.291041,0.9525 0.291041,1.32292 0,0.52916 -0.423333,0.79374 -0.661457,0.42334 -1.428748,0.42334 -1.005415,0 -1.428748,-0.68792 -0.555624,-0.84666 -0.555624,-5.05353 0,-1.00542 0.02646,-3.12208 0.05292,-2.14313 0.05292,-3.12208 0,-0.37042 -0.07937,-0.9525 -0.07937,-0.60854 -0.07937,-0.87313 0,-0.87312 0.634999,-1.50812 0.264583,-0.26458 0.978957,-0.26458 0.714374,0 1.428748,0.23812 0.714374,0.21167 0.899582,0.50271 0.211667,0.29104 0.211667,0.58208 z"
         style="font-style:normal;font-variant:normal;font-weight:normal;font-stretch:normal;font-size:26.4583px;font-family:'Marker Felt';-inkscape-font-specification:'Marker Felt, Normal';font-variant-ligatures:normal;font-variant-caps:normal;font-variant-numeric:normal;font-variant-east-asian:normal;fill:#ffffff;stroke-width:0.264583"
         id="path22" />
      <path
         d="m 90.685289,109.53759 q 0.185208,0.34396 0.185208,0.71438 0,0.52916 -0.449791,1.32291 -0.634999,1.05833 -0.740833,1.34937 -1.164165,3.33375 -2.989788,8.41374 -0.343957,1.74625 -0.873123,2.48708 -0.661458,1.00542 -1.957915,0.92604 -1.24354,-0.0794 -1.666872,-0.5027 -0.3175,-0.3175 -0.3175,-0.97896 0,-0.10583 0,-0.29104 0,-0.18521 0,-0.26459 0,-0.47624 -0.07937,-0.79374 l -2.698746,-9.68374 q -0.07937,-0.3175 -0.687916,-1.03188 -0.502708,-0.55562 -0.396875,-1.03187 0.264583,-1.16416 1.878539,-1.16416 0.343958,0 0.635,0.0529 1.031873,0.21167 2.037289,3.62479 0.820207,3.20145 1.666873,6.37645 l 2.751663,-8.46666 q 0.211666,-0.635 0.343958,-0.87312 0.238124,-0.42333 0.661457,-0.66146 0.449791,-0.23812 1.08479,-0.23812 1.217082,0 1.613957,0.71437 z"
         style="font-style:normal;font-variant:normal;font-weight:normal;font-stretch:normal;font-size:26.4583px;font-family:'Marker Felt';-inkscape-font-specification:'Marker Felt, Normal';font-variant-ligatures:normal;font-variant-caps:normal;font-variant-numeric:normal;font-variant-east-asian:normal;fill:#ffffff;stroke-width:0.264583"
         id="path24" />
      <path
         d="m 101.14001,121.04695 q -0.21167,1.00542 -1.428748,2.14312 -0.185208,0.29105 -1.455206,0.76729 -1.455206,0.55563 -2.513538,0.47625 -1.984373,-0.13229 -3.12208,-2.27541 -1.031874,-1.98437 -1.031874,-4.86833 0,-3.12208 1.164166,-5.47686 1.296456,-2.59292 3.466037,-2.91042 0.423333,-0.0529 0.820207,-0.0529 3.148536,0 3.466036,3.86291 0.15875,1.7727 -1.402288,3.86291 -1.693332,2.30187 -4.339162,3.22791 0.291042,1.05833 0.449792,1.37583 0.370416,0.66146 1.005415,0.66146 0.608541,0 1.296457,-0.47625 0.582082,-0.39687 0.793749,-0.76729 0.105833,-0.0529 0.211666,-0.58208 0.105833,-0.55563 0.555624,-0.79375 0.15875,-0.0794 0.370416,-0.0794 0.635001,0 1.217081,0.635 0.60854,0.60854 0.47625,1.27 z m -4.153952,-9.31332 q -1.058332,0 -1.71979,1.50812 -0.873124,2.01083 -0.714374,3.96875 1.24354,-0.39688 2.301872,-1.85208 1.058332,-1.45521 1.058332,-2.59292 0,-1.03187 -0.92604,-1.03187 z"
         style="font-style:normal;font-variant:normal;font-weight:normal;font-stretch:normal;font-size:26.4583px;font-family:'Marker Felt';-inkscape-font-specification:'Marker Felt, Normal';font-variant-ligatures:normal;font-variant-caps:normal;font-variant-numeric:normal;font-variant-east-asian:normal;fill:#ffffff;stroke-width:0.264583"
         id="path26" />
      <path
         d="m 113.29431,110.33134 q -0.10583,0.55562 -1.00541,0.76729 -1.05833,0.26458 -1.34937,0.60854 l -4.31271,4.97416 v 4.02166 q 0,0.58209 0.3175,1.19063 0.34396,0.58208 0.34396,0.89958 0,0.3175 -0.18521,0.71437 -0.44979,1.00542 -1.82562,1.00542 -0.9525,0 -1.50812,-0.60854 -0.37042,-0.39688 -0.37042,-1.00542 0,-0.21166 0.0529,-0.68791 0.0529,-0.47625 0.0529,-0.76729 v -9.89541 q 0,-0.23812 -0.21166,-0.58208 -0.21167,-0.34396 -0.21167,-0.55562 0,-0.15875 0.10583,-0.37042 0.34396,-0.635 2.14313,-0.635 1.40229,0 1.58749,0.66146 0.0794,0.26458 0.0794,0.44979 0,0.29104 -0.21167,0.44979 -0.21166,0.15875 -0.21166,0.3175 l 0.0529,0.9525 2.27542,-2.40771 q 0.39687,-0.44979 0.8202,-0.89958 0.4498,-0.44979 1.03188,-0.50271 0.89958,-0.0794 1.71979,0.39688 0.84666,0.47625 0.84666,1.24354 0,0.13229 -0.0265,0.26458 z"
         style="font-style:normal;font-variant:normal;font-weight:normal;font-stretch:normal;font-size:26.4583px;font-family:'Marker Felt';-inkscape-font-specification:'Marker Felt, Normal';font-variant-ligatures:normal;font-variant-caps:normal;font-variant-numeric:normal;font-variant-east-asian:normal;fill:#ffffff;stroke-width:0.264583"
         id="path28" />
      <path
         d="m 121.92384,120.27966 q 0,1.85208 -1.32292,3.175 -1.32291,1.29645 -3.12208,1.29645 -1.13771,0 -2.35479,-1.08479 -0.9525,-0.87312 -1.71979,-2.14312 -0.66145,-1.11125 -0.58208,-1.40229 0.29104,-0.66146 1.82562,-0.66146 0.635,0 1.00542,0.18521 0.635,0.34396 0.71437,0.87313 0.0794,0.60854 0.26459,0.76729 0.55562,0.84666 1.00541,0.84666 0.34396,0 0.635,-0.44979 0.3175,-0.47625 0.3175,-1.11125 0,-0.39687 -0.13229,-0.79375 -0.13229,-0.39687 -1.42875,-1.21708 -1.56104,-0.97896 -2.2225,-1.71979 -1.1377,-1.27 -1.1377,-2.96333 0,-1.98437 1.16416,-3.46603 1.16417,-1.50813 2.96333,-1.50813 1.85208,0 2.83104,1.40229 0.79375,1.13771 0.66146,2.30187 0.29104,0.3175 0.29104,1.05834 0,0.79375 -0.58208,1.34937 -0.58209,0.55562 -1.19063,0.55562 -0.89958,0 -1.56104,-1.19062 -0.18521,-0.3175 -0.18521,-0.84667 0,-0.23812 0.0265,-0.66145 0.0529,-0.44979 0.0529,-0.635 0,-0.68792 -0.50271,-0.68792 -0.76729,0 -0.76729,1.50813 0,1.53458 1.00542,2.46062 0.39687,0.37041 1.71979,1.05833 1.1377,0.58208 1.61395,1.19062 0.71438,0.92604 0.71438,2.51354 z"
         style="font-style:normal;font-variant:normal;font-weight:normal;font-stretch:normal;font-size:26.4583px;font-family:'Marker Felt';-inkscape-font-specification:'Marker Felt, Normal';font-variant-ligatures:normal;font-variant-caps:normal;font-variant-numeric:normal;font-variant-east-asian:normal;fill:#ffffff;stroke-width:0.264583"
         id="path30" />
      <path
         d="m 127.98734,103.98135 q 0.0794,0.0794 0.0794,0.26458 0,0.23813 -0.15875,0.82021 -0.1852,0.71437 -0.23812,0.97896 -0.0529,0.26458 0.0529,1.16416 0,0.55563 -0.34396,0.74083 -0.3175,0.15875 -0.82021,0.15875 -0.71437,0 -1.45521,-0.29104 -0.89958,-0.37041 -0.89958,-0.97896 0,-0.1852 0.15875,-0.5027 0.15875,-0.34396 0.18521,-0.55563 0.0529,-0.21166 0,-1.05833 -0.0529,-0.66146 0.26458,-0.89958 0.42334,-0.3175 1.50813,-0.3175 1.19062,0 1.66687,0.47625 z m 0.34396,6.45582 q 0,0.37042 -0.42334,1.16417 -0.39687,0.76729 -0.39687,1.27 v 7.77874 q 0,0.52916 0.29104,1.50812 0.29104,0.9525 0.29104,1.32292 0,0.52916 -0.42333,0.79374 -0.66146,0.42334 -1.42875,0.42334 -1.00541,0 -1.42875,-0.68792 -0.55562,-0.84666 -0.55562,-5.05353 0,-1.00542 0.0265,-3.12208 0.0529,-2.14313 0.0529,-3.12208 0,-0.37042 -0.0794,-0.9525 -0.0794,-0.60854 -0.0794,-0.87313 0,-0.87312 0.635,-1.50812 0.26459,-0.26458 0.97896,-0.26458 0.71437,0 1.42875,0.23812 0.71437,0.21167 0.89958,0.50271 0.21167,0.29104 0.21167,0.58208 z"
         style="font-style:normal;font-variant:normal;font-weight:normal;font-stretch:normal;font-size:26.4583px;font-family:'Marker Felt';-inkscape-font-specification:'Marker Felt, Normal';font-variant-ligatures:normal;font-variant-caps:normal;font-variant-numeric:normal;font-variant-east-asian:normal;fill:#ffffff;stroke-width:0.264583"
         id="path32" />
      <path
         d="m 139.6943,123.66632 q -0.3175,0.71438 -1.95791,0.71438 -1.03188,0 -1.37583,-0.42334 -0.13229,-0.13229 -0.13229,-0.37041 0,-0.18521 0.13229,-0.58208 0.13229,-0.39688 0.15875,-0.60854 -1.21709,1.71978 -2.8575,1.71978 -2.19604,0 -3.20145,-2.48708 -0.76729,-1.90499 -0.76729,-4.9477 0,-2.80458 1.19062,-5.10645 1.32291,-2.51354 3.25437,-2.51354 1.08479,0 2.2225,1.74625 v -3.41312 q 0,-0.42333 -0.34396,-1.08479 -0.34396,-0.66146 -0.34396,-1.00542 0,-0.26458 0.13229,-0.52916 0.55563,-1.19063 2.16958,-1.19063 1.32292,0 1.64042,0.9525 0.10583,0.3175 0.10583,0.60854 0,0.29104 -0.18521,0.79375 -0.15875,0.47625 -0.15875,0.82021 v 15.08123 q 0,0.29104 0.21167,0.71437 0.21167,0.39688 0.21167,0.66146 0,0.21167 -0.10584,0.44979 z m -3.65124,-6.98499 q 0,-1.21708 -0.50271,-2.85749 -0.55562,-1.74625 -1.08479,-1.74625 -0.60854,0 -0.97896,1.61395 -0.29104,1.32292 -0.29104,2.98979 0,0.29104 -0.0265,0.9525 0,0.635 0,0.97896 0,2.98979 1.29646,2.98979 0.60854,0 1.11125,-1.71979 0.47625,-1.5875 0.47625,-3.20146 z"
         style="font-style:normal;font-variant:normal;font-weight:normal;font-stretch:normal;font-size:26.4583px;font-family:'Marker Felt';-inkscape-font-specification:'Marker Felt, Normal';font-variant-ligatures:normal;font-variant-caps:normal;font-variant-numeric:normal;font-variant-east-asian:normal;fill:#ffffff;stroke-width:0.264583"
         id="path34" />
      <path
         d="m 150.88493,121.04695 q -0.21167,1.00542 -1.42875,2.14312 -0.18521,0.29105 -1.45521,0.76729 -1.45521,0.55563 -2.51354,0.47625 -1.98437,-0.13229 -3.12208,-2.27541 -1.03187,-1.98437 -1.03187,-4.86833 0,-3.12208 1.16416,-5.47686 1.29646,-2.59292 3.46604,-2.91042 0.42333,-0.0529 0.82021,-0.0529 3.14854,0 3.46604,3.86291 0.15875,1.7727 -1.40229,3.86291 -1.69333,2.30187 -4.33916,3.22791 0.29104,1.05833 0.44979,1.37583 0.37041,0.66146 1.00541,0.66146 0.60854,0 1.29646,-0.47625 0.58208,-0.39687 0.79375,-0.76729 0.10583,-0.0529 0.21166,-0.58208 0.10584,-0.55563 0.55563,-0.79375 0.15875,-0.0794 0.37041,-0.0794 0.635,0 1.21709,0.635 0.60854,0.60854 0.47625,1.27 z m -4.15396,-9.31332 q -1.05833,0 -1.71979,1.50812 -0.87312,2.01083 -0.71437,3.96875 1.24354,-0.39688 2.30187,-1.85208 1.05833,-1.45521 1.05833,-2.59292 0,-1.03187 -0.92604,-1.03187 z"
         style="font-style:normal;font-variant:normal;font-weight:normal;font-stretch:normal;font-size:26.4583px;font-family:'Marker Felt';-inkscape-font-specification:'Marker Felt, Normal';font-variant-ligatures:normal;font-variant-caps:normal;font-variant-numeric:normal;font-variant-east-asian:normal;fill:#ffffff;stroke-width:0.264583"
         id="path36" />
      <path
         d="m 70.030842,151.50045 q -0.185208,0.34396 -0.820207,0.42334 -0.05292,0 -1.137707,0.0529 0.185208,1.19063 1.375832,2.96333 0.687915,0.50271 0.687915,1.32292 0,1.29646 -1.587498,1.29646 -1.508123,0 -2.063747,-0.7673 -0.185208,-0.26458 -0.238125,-0.71437 0,-0.29104 -0.02646,-0.60854 -0.238125,-0.23813 -1.428748,-3.06916 -2.169581,0.3175 -5.344577,0.89958 -0.317499,0.76729 -0.687915,2.2225 0.05292,0.26458 0.05292,0.5027 0,0.71438 -0.476249,1.08479 -0.47625,0.39688 -1.137707,0.39688 -0.740833,0 -1.375832,-0.55563 -0.634999,-0.55562 -0.634999,-1.29645 0,-0.66146 0.608541,-1.19063 1.984372,-10.08061 4.81541,-16.66872 -0.05292,-0.3175 -0.05292,-0.635 0,-1.32292 0.899582,-1.74625 0.370416,-0.15875 0.952499,-0.15875 1.111248,0 1.852081,0.34396 0.952499,0.47625 0.952499,1.42874 0,0.87313 -0.47625,1.56104 0.502708,4.49792 2.169581,10.37166 0.15875,-0.0265 1.08479,-0.26459 0.555624,-0.15874 0.846666,-0.15874 0.343958,0 0.555624,0.15874 0.92604,0.71438 0.92604,1.74625 0,0.55563 -0.291041,1.05833 z m -6.349992,-2.01083 q -0.449791,-1.66687 -1.428748,-6.4029 -1.878539,4.10103 -2.222497,7.0379 z"
         style="font-style:normal;font-variant:normal;font-weight:normal;font-stretch:normal;font-size:26.4583px;font-family:'Marker Felt';-inkscape-font-specification:'Marker Felt, Normal';font-variant-ligatures:normal;font-variant-caps:normal;font-variant-numeric:normal;font-variant-east-asian:normal;fill:#ffffff;stroke-width:0.264583"
         id="path38" />
      <path
         d="m 82.172727,143.40421 q -0.105833,0.55563 -1.005415,0.7673 -1.058332,0.26458 -1.349374,0.60854 l -4.312702,4.97416 v 4.02166 q 0,0.58208 0.317499,1.19062 0.343958,0.58208 0.343958,0.89958 0,0.3175 -0.185208,0.71438 -0.449791,1.00541 -1.825623,1.00541 -0.952498,0 -1.508123,-0.60854 -0.370416,-0.39687 -0.370416,-1.00541 0,-0.21167 0.05292,-0.68792 0.05292,-0.47625 0.05292,-0.76729 v -9.8954 q 0,-0.23813 -0.211666,-0.58209 -0.211667,-0.34395 -0.211667,-0.55562 0,-0.15875 0.105834,-0.37042 0.343958,-0.635 2.143122,-0.635 1.40229,0 1.587498,0.66146 0.07937,0.26458 0.07937,0.44979 0,0.29104 -0.211667,0.44979 -0.211666,0.15875 -0.211666,0.3175 l 0.05292,0.9525 2.275413,-2.4077 q 0.396875,-0.44979 0.820208,-0.89958 0.449791,-0.4498 1.031873,-0.50271 0.899583,-0.0794 1.71979,0.39687 0.846665,0.47625 0.846665,1.24354 0,0.13229 -0.02646,0.26458 z"
         style="font-style:normal;font-variant:normal;font-weight:normal;font-stretch:normal;font-size:26.4583px;font-family:'Marker Felt';-inkscape-font-specification:'Marker Felt, Normal';font-variant-ligatures:normal;font-variant-caps:normal;font-variant-numeric:normal;font-variant-east-asian:normal;fill:#ffffff;stroke-width:0.264583"
         id="path40" />
      <path
         d="m 91.767162,154.11983 q -0.211666,1.00541 -1.428748,2.14312 -0.185208,0.29104 -1.455207,0.76729 -1.455206,0.55562 -2.513538,0.47625 -1.984372,-0.13229 -3.122079,-2.27542 -1.031874,-1.98437 -1.031874,-4.86832 0,-3.12208 1.164165,-5.47687 1.296457,-2.59291 3.466037,-2.91041 0.423333,-0.0529 0.820208,-0.0529 3.148537,0 3.466037,3.86291 0.15875,1.77271 -1.40229,3.86291 -1.693331,2.30188 -4.339161,3.22792 0.291041,1.05833 0.449791,1.37583 0.370416,0.66146 1.005415,0.66146 0.608541,0 1.296457,-0.47625 0.582083,-0.39688 0.793749,-0.76729 0.105833,-0.0529 0.211666,-0.58209 0.105834,-0.55562 0.555625,-0.79375 0.15875,-0.0794 0.370416,-0.0794 0.634999,0 1.217082,0.635 0.608541,0.60854 0.476249,1.27 z m -4.153953,-9.31333 q -1.058332,0 -1.719789,1.50813 -0.873124,2.01083 -0.714374,3.96874 1.24354,-0.39687 2.301872,-1.85208 1.058332,-1.4552 1.058332,-2.59291 0,-1.03188 -0.926041,-1.03188 z"
         style="font-style:normal;font-variant:normal;font-weight:normal;font-stretch:normal;font-size:26.4583px;font-family:'Marker Felt';-inkscape-font-specification:'Marker Felt, Normal';font-variant-ligatures:normal;font-variant-caps:normal;font-variant-numeric:normal;font-variant-east-asian:normal;fill:#ffffff;stroke-width:0.264583"
         id="path42" />
      <path
         d="m 105.57384,155.7867 q -0.39687,1.29646 -1.95791,1.29646 -0.52917,0 -0.84667,-0.18521 -0.42333,-0.29104 -0.58208,-1.16417 -0.3175,-1.50812 -0.635,-2.35479 -0.0794,1.45521 -1.587497,2.96333 -1.508123,1.48167 -3.042704,1.48167 -1.931456,0 -2.672288,-2.56646 -0.264583,-0.9525 -0.264583,-1.79916 0,-2.46062 2.513538,-4.20687 2.063748,-1.21708 4.153954,-2.40771 0.10583,-0.44979 0.10583,-0.87312 0,-0.82021 -0.44979,-0.9525 -0.44979,-0.15875 -0.767289,-0.15875 -0.555625,0 -0.926041,0.37042 -0.343958,0.34396 -0.661457,0.66146 -0.3175,0.21166 -0.820208,0.97895 -0.396874,0.60854 -0.873124,0.66146 -0.687915,0.0794 -1.24354,-0.47625 -0.555624,-0.55562 -0.555624,-1.29646 0,-0.42333 0.211667,-0.76729 0.60854,-1.00541 1.825622,-1.74624 1.852081,-1.11125 4.630204,-1.11125 1.7727,0 2.43416,1.69333 0.42333,1.1377 0.635,4.25978 0.23813,3.78354 0.58208,5.52979 0.0529,0.34396 0.4498,0.87312 0.39687,0.52917 0.39687,0.92604 0,0.18521 -0.0529,0.37042 z m -4.60374,-6.50874 q -0.79375,0.42333 -1.587499,0.87312 -0.767291,0.44979 -1.428748,1.19062 -0.952499,1.0848 -0.952499,1.85209 0,0.635 0.476249,1.32291 0.264583,0.37042 0.582083,0.37042 0.687916,0 1.481665,-1.53458 0.820209,-1.53459 1.428749,-4.07458 z"
         style="font-style:normal;font-variant:normal;font-weight:normal;font-stretch:normal;font-size:26.4583px;font-family:'Marker Felt';-inkscape-font-specification:'Marker Felt, Normal';font-variant-ligatures:normal;font-variant-caps:normal;font-variant-numeric:normal;font-variant-east-asian:normal;fill:#ffffff;stroke-width:0.264583"
         id="path44" />
      <path
         d="m 70.189592,188.22457 q 0.02646,0.15875 0.02646,0.29105 0,0.79374 -0.92604,1.34937 -0.926041,0.52917 -1.931456,0.52917 -0.608541,0 -0.978957,-0.23813 -0.264583,-0.15875 -0.47625,-0.60854 -0.185208,-0.47625 -0.423332,-0.635 l -5.847285,-3.91583 0.238125,2.43417 q 0.02646,0.1852 0.396875,0.76729 0.396874,0.58208 0.396874,0.97895 0,0.58209 -0.740832,1.08479 -0.449791,0.3175 -1.137707,0.3175 -0.978957,0 -1.825623,-0.52916 -0.92604,-0.52917 -1.111248,-1.34938 -0.02646,-0.15875 -0.02646,-0.26458 0,-0.37042 0.343958,-0.635 0.370416,-0.29104 0.370416,-0.52916 l -0.846665,-15.08124 q -0.02646,-0.34395 -0.291042,-0.89958 -0.264583,-0.58208 -0.264583,-0.84666 0,-0.68792 0.899583,-1.11125 0.740832,-0.37042 1.508123,-0.37042 0.502707,0 0.873124,0.15875 0.370416,0.13229 0.502707,0.44979 0.132292,0.29104 0.3175,0.29104 0.02646,0.0265 1.613956,-0.58208 1.852081,-0.68791 3.254371,-0.68791 2.037289,0 3.280829,1.42874 0.343958,0.39688 0.343958,1.11125 0,1.93146 -2.222497,5.45041 -2.116664,3.30729 -4.36562,5.29166 l 6.826242,4.7625 q 0.02646,0.0265 1.322915,0.635 0.740832,0.34395 0.899582,0.95249 z m -7.090824,-16.4306 q -0.582083,0 -1.852081,1.11125 -0.264583,0.21167 -1.957914,1.82562 l -0.05292,4.73604 q 1.640414,-1.79917 2.963329,-3.99521 1.322915,-2.22249 1.322915,-3.17499 0,-0.50271 -0.423332,-0.50271 z"
         style="font-style:normal;font-variant:normal;font-weight:normal;font-stretch:normal;font-size:26.4583px;font-family:'Marker Felt';-inkscape-font-specification:'Marker Felt, Normal';font-variant-ligatures:normal;font-variant-caps:normal;font-variant-numeric:normal;font-variant-east-asian:normal;fill:#ffffff;stroke-width:0.264583"
         id="path46" />
      <path
         d="m 80.691867,187.1927 q -0.211667,1.00542 -1.428748,2.14312 -0.185209,0.29104 -1.455207,0.76729 -1.455206,0.55563 -2.513538,0.47625 -1.984373,-0.13229 -3.12208,-2.27541 -1.031873,-1.98437 -1.031873,-4.86833 0,-3.12208 1.164165,-5.47687 1.296456,-2.59291 3.466037,-2.91041 0.423333,-0.0529 0.820207,-0.0529 3.148538,0 3.466038,3.86292 0.158749,1.7727 -1.40229,3.86291 -1.693332,2.30187 -4.339162,3.22791 0.291042,1.05833 0.449792,1.37583 0.370416,0.66146 1.005415,0.66146 0.608541,0 1.296457,-0.47625 0.582082,-0.39687 0.793749,-0.76729 0.105833,-0.0529 0.211666,-0.58208 0.105833,-0.55563 0.555624,-0.79375 0.15875,-0.0794 0.370417,-0.0794 0.634999,0 1.217081,0.635 0.608541,0.60854 0.47625,1.27 z m -4.153953,-9.31332 q -1.058332,0 -1.71979,1.50812 -0.873124,2.01083 -0.714374,3.96875 1.24354,-0.39688 2.301872,-1.85208 1.058332,-1.45521 1.058332,-2.59292 0,-1.03187 -0.92604,-1.03187 z"
         style="font-style:normal;font-variant:normal;font-weight:normal;font-stretch:normal;font-size:26.4583px;font-family:'Marker Felt';-inkscape-font-specification:'Marker Felt, Normal';font-variant-ligatures:normal;font-variant-caps:normal;font-variant-numeric:normal;font-variant-east-asian:normal;fill:#ffffff;stroke-width:0.264583"
         id="path48" />
      <path
         d="m 91.820082,186.42541 q 0,1.85208 -1.322915,3.175 -1.322915,1.29645 -3.122079,1.29645 -1.137707,0 -2.354789,-1.08479 -0.952499,-0.87312 -1.719789,-2.14312 -0.661458,-1.11125 -0.582083,-1.40229 0.291041,-0.66146 1.825623,-0.66146 0.634999,0 1.005415,0.18521 0.634999,0.34396 0.714374,0.87312 0.07937,0.60855 0.264583,0.7673 0.555625,0.84666 1.005416,0.84666 0.343957,0 0.634999,-0.44979 0.317499,-0.47625 0.317499,-1.11125 0,-0.39687 -0.132291,-0.79375 -0.132292,-0.39687 -1.428748,-1.21708 -1.56104,-0.97896 -2.222497,-1.71979 -1.137707,-1.27 -1.137707,-2.96333 0,-1.98437 1.164165,-3.46604 1.164165,-1.50812 2.963329,-1.50812 1.852081,0 2.831038,1.40229 0.793749,1.13771 0.661458,2.30187 0.291041,0.3175 0.291041,1.05834 0,0.79374 -0.582082,1.34937 -0.582083,0.55562 -1.190624,0.55562 -0.899582,0 -1.56104,-1.19062 -0.185208,-0.3175 -0.185208,-0.84667 0,-0.23812 0.02646,-0.66145 0.05292,-0.44979 0.05292,-0.635 0,-0.68792 -0.502707,-0.68792 -0.767291,0 -0.767291,1.50812 0,1.53459 1.005415,2.46063 0.396875,0.37041 1.71979,1.05833 1.137707,0.58208 1.613956,1.19062 0.714374,0.92604 0.714374,2.51354 z"
         style="font-style:normal;font-variant:normal;font-weight:normal;font-stretch:normal;font-size:26.4583px;font-family:'Marker Felt';-inkscape-font-specification:'Marker Felt, Normal';font-variant-ligatures:normal;font-variant-caps:normal;font-variant-numeric:normal;font-variant-east-asian:normal;fill:#ffffff;stroke-width:0.264583"
         id="path50" />
      <path
         d="m 97.911693,170.1271 q 0.07937,0.0794 0.07937,0.26458 0,0.23813 -0.15875,0.82021 -0.185208,0.71437 -0.238124,0.97895 -0.05292,0.26459 0.05292,1.16417 0,0.55562 -0.343958,0.74083 -0.317499,0.15875 -0.820207,0.15875 -0.714374,0 -1.455206,-0.29104 -0.899583,-0.37042 -0.899583,-0.97896 0,-0.1852 0.15875,-0.5027 0.15875,-0.34396 0.185208,-0.55563 0.05292,-0.21166 0,-1.05833 -0.05292,-0.66146 0.264583,-0.89958 0.423333,-0.3175 1.508123,-0.3175 1.190624,0 1.666873,0.47625 z m 0.343958,6.45582 q 0,0.37042 -0.423333,1.16417 -0.396874,0.76729 -0.396874,1.27 v 7.77874 q 0,0.52916 0.291041,1.50812 0.291041,0.9525 0.291041,1.32291 0,0.52917 -0.423332,0.79375 -0.661458,0.42334 -1.428749,0.42334 -1.005415,0 -1.428748,-0.68792 -0.555624,-0.84667 -0.555624,-5.05353 0,-1.00542 0.02646,-3.12208 0.05292,-2.14313 0.05292,-3.12208 0,-0.37042 -0.07937,-0.9525 -0.07937,-0.60854 -0.07937,-0.87313 0,-0.87312 0.634999,-1.50812 0.264583,-0.26458 0.978957,-0.26458 0.714374,0 1.428749,0.23812 0.714374,0.21167 0.899582,0.50271 0.211666,0.29104 0.211666,0.58208 z"
         style="font-style:normal;font-variant:normal;font-weight:normal;font-stretch:normal;font-size:26.4583px;font-family:'Marker Felt';-inkscape-font-specification:'Marker Felt, Normal';font-variant-ligatures:normal;font-variant-caps:normal;font-variant-numeric:normal;font-variant-east-asian:normal;fill:#ffffff;stroke-width:0.264583"
         id="path52" />
      <path
         d="m 109.61866,189.81207 q -0.3175,0.71438 -1.95792,0.71438 -1.03187,0 -1.37583,-0.42334 -0.13229,-0.13229 -0.13229,-0.37041 0,-0.18521 0.13229,-0.58208 0.13229,-0.39688 0.15875,-0.60855 -1.21708,1.71979 -2.8575,1.71979 -2.19603,0 -3.20145,-2.48708 -0.76729,-1.90499 -0.76729,-4.9477 0,-2.80458 1.19062,-5.10645 1.32292,-2.51354 3.25437,-2.51354 1.08479,0 2.2225,1.74625 v -3.41312 q 0,-0.42333 -0.34396,-1.08479 -0.34395,-0.66146 -0.34395,-1.00542 0,-0.26458 0.13229,-0.52916 0.55562,-1.19063 2.16958,-1.19063 1.32291,0 1.64041,0.9525 0.10584,0.3175 0.10584,0.60854 0,0.29104 -0.18521,0.79375 -0.15875,0.47625 -0.15875,0.82021 v 15.08123 q 0,0.29104 0.21166,0.71437 0.21167,0.39688 0.21167,0.66146 0,0.21167 -0.10583,0.44979 z m -3.65125,-6.98499 q 0,-1.21708 -0.50271,-2.85749 -0.55562,-1.74625 -1.08479,-1.74625 -0.60854,0 -0.97895,1.61395 -0.29104,1.32292 -0.29104,2.98979 0,0.29104 -0.0265,0.9525 0,0.635 0,0.97896 0,2.98979 1.29645,2.98979 0.60854,0 1.11125,-1.71979 0.47625,-1.5875 0.47625,-3.20146 z"
         style="font-style:normal;font-variant:normal;font-weight:normal;font-stretch:normal;font-size:26.4583px;font-family:'Marker Felt';-inkscape-font-specification:'Marker Felt, Normal';font-variant-ligatures:normal;font-variant-caps:normal;font-variant-numeric:normal;font-variant-east-asian:normal;fill:#ffffff;stroke-width:0.264583"
         id="path54" />
      <path
         d="m 120.80928,187.1927 q -0.21167,1.00542 -1.42875,2.14312 -0.18521,0.29104 -1.4552,0.76729 -1.45521,0.55563 -2.51354,0.47625 -1.98438,-0.13229 -3.12208,-2.27541 -1.03188,-1.98437 -1.03188,-4.86833 0,-3.12208 1.16417,-5.47687 1.29646,-2.59291 3.46604,-2.91041 0.42333,-0.0529 0.8202,-0.0529 3.14854,0 3.46604,3.86292 0.15875,1.7727 -1.40229,3.86291 -1.69333,2.30187 -4.33916,3.22791 0.29104,1.05833 0.44979,1.37583 0.37042,0.66146 1.00542,0.66146 0.60854,0 1.29645,-0.47625 0.58209,-0.39687 0.79375,-0.76729 0.10584,-0.0529 0.21167,-0.58208 0.10583,-0.55563 0.55562,-0.79375 0.15875,-0.0794 0.37042,-0.0794 0.635,0 1.21708,0.635 0.60854,0.60854 0.47625,1.27 z m -4.15395,-9.31332 q -1.05833,0 -1.71979,1.50812 -0.87313,2.01083 -0.71438,3.96875 1.24354,-0.39688 2.30188,-1.85208 1.05833,-1.45521 1.05833,-2.59292 0,-1.03187 -0.92604,-1.03187 z"
         style="font-style:normal;font-variant:normal;font-weight:normal;font-stretch:normal;font-size:26.4583px;font-family:'Marker Felt';-inkscape-font-specification:'Marker Felt, Normal';font-variant-ligatures:normal;font-variant-caps:normal;font-variant-numeric:normal;font-variant-east-asian:normal;fill:#ffffff;stroke-width:0.264583"
         id="path56" />
      <path
         d="m 134.94089,188.27749 q -0.0529,0.58208 -0.76729,1.00542 -0.71437,0.39687 -1.5875,0.39687 -1.29645,0 -1.7727,-0.82021 0.21167,-8.14915 -0.47625,-8.25499 -0.66146,-0.10583 -3.22791,7.30249 0,0.79375 0,1.5875 -0.0265,0.9525 -0.52917,1.34938 -0.47625,0.39687 -1.03187,0.39687 -0.9525,0 -2.03729,-1.03187 -0.3175,-0.26459 -0.34396,-4.02166 0.0265,2.30187 0.0265,-8.54604 0,-0.23812 -0.0529,-0.63499 -0.0529,-0.42334 -0.0529,-0.60855 0,-0.5027 0.26458,-0.87312 0.3175,-0.47625 1.00541,-0.47625 0.71438,0 1.48167,0.44979 0.79375,0.42334 0.9525,0.82021 0.10583,0.26458 0.10583,0.52917 0,0.26458 -0.21167,0.74083 -0.21166,0.47625 -0.21166,0.79375 v 3.65124 q 1.66687,-3.54541 2.51354,-4.68312 1.50812,-1.95791 3.41312,-1.82562 1.1377,0.0794 1.61395,2.11666 0.37042,1.53459 0.39688,4.55083 0,2.38125 0,4.7625 0.0529,0.1852 0.37041,0.66145 0.18521,0.26459 0.15875,0.66146 z"
         style="font-style:normal;font-variant:normal;font-weight:normal;font-stretch:normal;font-size:26.4583px;font-family:'Marker Felt';-inkscape-font-specification:'Marker Felt, Normal';font-variant-ligatures:normal;font-variant-caps:normal;font-variant-numeric:normal;font-variant-east-asian:normal;fill:#ffffff;stroke-width:0.264583"
         id="path58" />
      <path
         d="m 145.83592,177.95875 q -0.21167,0 -0.66146,-0.15875 -0.44979,-0.1852 -0.68791,-0.1852 -0.18521,0 -0.37042,0.0794 l -0.97896,0.50271 v 9.04874 q 0,0.50271 0.52917,1.29645 0.55562,0.79375 0.44979,1.27 -0.13229,0.58209 -0.79375,0.92604 -0.635,0.34396 -1.37583,0.34396 -1.40229,0 -1.93146,-1.24354 -0.15875,-0.37042 -0.1852,-2.35479 -0.0265,-1.32291 0.0264,-4.12749 0.0529,-3.175 0.0529,-4.02166 -0.15875,0.0529 -0.52917,0.37041 -0.37041,0.29104 -0.74083,0.29104 -0.29104,0 -0.74083,-0.15875 -1.85208,-0.635 -1.85208,-1.29645 0,-0.15875 0.0794,-0.34396 0.18521,-0.42333 0.68792,-0.47625 0.76729,-0.10583 0.92604,-0.18521 0.60854,-0.23812 2.2225,-1.13771 v -2.30187 q 0,-0.26458 -0.15875,-0.68791 -0.13229,-0.44979 -0.13229,-0.66146 0,-0.23813 0.13229,-0.44979 0.68791,-1.05833 1.85208,-1.05833 1.34937,0 1.905,1.05833 0.21166,0.42333 0.21166,0.68791 0,0.3175 -0.3175,0.66146 -0.3175,0.34396 -0.3175,0.635 v 1.29646 q 0.47625,-0.21167 1.05833,-0.71438 0.4498,-0.37041 0.7673,-0.37041 0.13229,0 0.29104,0.0529 1.66687,0.44979 1.66687,2.01083 0,0.50271 -0.3175,0.9525 -0.29104,0.44979 -0.76729,0.44979 z"
         style="font-style:normal;font-variant:normal;font-weight:normal;font-stretch:normal;font-size:26.4583px;font-family:'Marker Felt';-inkscape-font-specification:'Marker Felt, Normal';font-variant-ligatures:normal;font-variant-caps:normal;font-variant-numeric:normal;font-variant-east-asian:normal;fill:#ffffff;stroke-width:0.264583"
         id="path60" />
      <path
         d="m 156.53172,186.42541 q 0,1.85208 -1.32292,3.175 -1.32291,1.29645 -3.12208,1.29645 -1.13771,0 -2.35479,-1.08479 -0.9525,-0.87312 -1.71979,-2.14312 -0.66145,-1.11125 -0.58208,-1.40229 0.29104,-0.66146 1.82562,-0.66146 0.635,0 1.00542,0.18521 0.635,0.34396 0.71437,0.87312 0.0794,0.60855 0.26459,0.7673 0.55562,0.84666 1.00541,0.84666 0.34396,0 0.635,-0.44979 0.3175,-0.47625 0.3175,-1.11125 0,-0.39687 -0.13229,-0.79375 -0.13229,-0.39687 -1.42875,-1.21708 -1.56104,-0.97896 -2.2225,-1.71979 -1.1377,-1.27 -1.1377,-2.96333 0,-1.98437 1.16416,-3.46604 1.16417,-1.50812 2.96333,-1.50812 1.85208,0 2.83104,1.40229 0.79375,1.13771 0.66146,2.30187 0.29104,0.3175 0.29104,1.05834 0,0.79374 -0.58208,1.34937 -0.58209,0.55562 -1.19063,0.55562 -0.89958,0 -1.56104,-1.19062 -0.18521,-0.3175 -0.18521,-0.84667 0,-0.23812 0.0265,-0.66145 0.0529,-0.44979 0.0529,-0.635 0,-0.68792 -0.50271,-0.68792 -0.76729,0 -0.76729,1.50812 0,1.53459 1.00542,2.46063 0.39687,0.37041 1.71979,1.05833 1.1377,0.58208 1.61395,1.19062 0.71438,0.92604 0.71438,2.51354 z"
         style="font-style:normal;font-variant:normal;font-weight:normal;font-stretch:normal;font-size:26.4583px;font-family:'Marker Felt';-inkscape-font-specification:'Marker Felt, Normal';font-variant-ligatures:normal;font-variant-caps:normal;font-variant-numeric:normal;font-variant-east-asian:normal;fill:#ffffff;stroke-width:0.264583"
         id="path62" />
    </g>
  </g>
</svg>
